<svg width="22" height="21" viewBox="0 0 22 21" fill="none" xmlns="http://www.w3.org/2000/svg">
<path d="M16.0125 0H4.9875C2.1875 0 0 2.1875 0 4.9875V16.1C0 18.8125 2.1875 21 4.9875 21H16.1C18.8125 21 21.0875 18.8125 21.0875 16.0125V4.9875C21 2.1875 18.8125 0 16.0125 0ZM13.825 6.3875H12.6875C11.8125 6.3875 11.55 6.825 11.55 7.4375V8.8375H13.7375L13.475 11.025H11.55V16.625H9.1875V10.9375H7.175V8.75H9.1V7.175C9.1875 5.25 10.325 4.375 12.075 4.375C12.8625 4.375 13.5625 4.4625 13.825 4.4625V6.3875Z" fill="black"/>
</svg>
