<svg width="21" height="18" viewBox="0 0 21 18" fill="none" xmlns="http://www.w3.org/2000/svg">
<path d="M20.9597 2.03262C20.1854 2.373 19.3585 2.60487 18.4879 2.71075C19.3751 2.17612 20.0576 1.3335 20.3805 0.328125C19.5484 0.813749 18.6261 1.16725 17.6444 1.36412C16.8604 0.524999 15.743 0 14.5022 0C12.1249 0 10.1972 1.92762 10.1972 4.30237C10.1972 4.64362 10.2366 4.97174 10.3084 5.28587C6.72962 5.11699 3.55775 3.3985 1.435 0.800624C1.06137 1.43237 0.85225 2.1665 0.85225 2.96625C0.85225 4.4625 1.6135 5.77762 2.76675 6.55024C2.06062 6.52749 1.3965 6.33324 0.81725 6.01124V6.06462C0.81725 8.15149 2.29862 9.89186 4.27 10.2882C3.90862 10.3854 3.52712 10.4379 3.136 10.4379C2.86125 10.4379 2.59787 10.4116 2.3345 10.3626C2.88662 12.0715 4.47387 13.3175 6.363 13.3525C4.893 14.5066 3.03012 15.1944 1.02375 15.1944C0.6825 15.1944 0.342125 15.1742 0 15.1357C1.91537 16.3555 4.172 17.0686 6.61237 17.0686C14.5346 17.0686 18.8615 10.5096 18.8615 4.83087C18.8615 4.64799 18.8615 4.46337 18.8484 4.27962C19.6892 3.67675 20.4234 2.91462 21.0009 2.05012L20.9597 2.03262Z" fill="black"/>
</svg>
