<svg width="21" height="21" viewBox="0 0 21 21" fill="none" xmlns="http://www.w3.org/2000/svg">
<path d="M16.0125 0H4.9875C2.1875 0 0 2.1875 0 4.9875V16.0125C0 18.8125 2.1875 21 4.9875 21H16.0125C18.725 21 21 18.8125 21 16.0125V4.9875C21 2.1875 18.8125 0 16.0125 0ZM7.6125 15.6625H5.425V8.6625H7.6125V15.6625ZM6.475 7.7C5.775 7.7 5.25 7.175 5.25 6.475C5.25 5.775 5.775 5.25 6.475 5.25C7.175 5.25 7.7 5.775 7.7 6.475C7.7875 7.175 7.175 7.7 6.475 7.7ZM15.75 15.6625H13.5625V12.25C13.5625 11.4625 13.5625 10.4125 12.425 10.4125C11.2875 10.4125 11.1125 11.2875 11.1125 12.25V15.75H8.925V8.75H11.025V9.625C11.2875 9.1 11.9875 8.4875 13.125 8.4875C15.3125 8.4875 15.75 9.975 15.75 11.8125V15.6625Z" fill="black"/>
</svg>
